<svg width="19" height="18" viewBox="0 0 19 18" fill="none" xmlns="http://www.w3.org/2000/svg">
<path fill-rule="evenodd" clip-rule="evenodd" d="M5.35877 0.0366744C5.18528 0.0972498 5.03612 0.229094 4.95751 0.391332C4.89545 0.519483 4.88352 0.609396 4.88352 0.949596V1.35512L4.3286 1.37693C3.55749 1.40729 3.15906 1.49973 2.61868 1.77369C1.73183 2.2233 1.0971 3.02907 0.823533 4.05255L0.74707 4.33861V9.68556V15.0325L0.827194 15.347C0.913901 15.6873 1.14723 16.2123 1.32906 16.4764C1.48825 16.7076 1.87049 17.1055 2.11115 17.2905C2.56084 17.6363 3.18856 17.8945 3.76175 17.9694C3.96762 17.9963 5.82508 18.0048 9.93526 17.9975L15.8143 17.9871L16.0868 17.9096C16.7138 17.7314 17.185 17.4774 17.5955 17.0964C18.2084 16.5273 18.5633 15.8864 18.7004 15.1006C18.781 14.6389 18.7807 4.73045 18.7001 4.26854C18.575 3.55205 18.2529 2.94253 17.7148 2.40456C16.9756 1.66542 16.1839 1.37056 14.9289 1.36705L14.6068 1.36613L14.5945 0.911816C14.5826 0.472768 14.5786 0.452435 14.4766 0.308138C14.1689 -0.126935 13.534 -0.089788 13.2896 0.377613C13.1991 0.550685 13.1916 0.595818 13.1916 0.965602V1.36613H9.74164H6.29167V0.965602C6.29167 0.595818 6.28413 0.550685 6.19366 0.377613C6.03429 0.0728016 5.67514 -0.0738527 5.35877 0.0366744ZM4.88352 3.53066C4.88352 4.33918 4.9027 4.45255 5.07003 4.63178C5.42932 5.01666 6.11667 4.86128 6.25492 4.36391C6.27491 4.29197 6.29135 3.9046 6.29146 3.50315L6.29167 2.77322H9.74164H13.1916L13.1918 3.50315C13.1919 3.9046 13.2084 4.29197 13.2284 4.36391C13.3666 4.86128 14.054 5.01666 14.4133 4.63178C14.5808 4.45234 14.5998 4.33956 14.5998 3.52549V2.76288L15.1014 2.78342C15.3825 2.79489 15.6947 2.82859 15.8114 2.86004C16.3709 3.01067 16.8746 3.42988 17.1334 3.96032C17.2876 4.27621 17.3443 4.57821 17.3451 5.08613L17.3457 5.51705H9.74164H2.13762L2.13822 5.08613C2.13896 4.57821 2.19571 4.27621 2.34986 3.96032C2.65688 3.33106 3.23802 2.91252 3.94981 2.80798C4.04704 2.7937 4.29695 2.78001 4.50508 2.77762L4.88352 2.77322V3.53066ZM17.3457 10.8408C17.3457 14.6451 17.3437 14.7653 17.2751 15.0331C17.1005 15.7153 16.5753 16.2737 15.9005 16.4945L15.6383 16.5803H9.74164H3.845L3.58274 16.4945C3.27094 16.3925 2.86666 16.1317 2.66462 15.9024C2.45495 15.6644 2.28864 15.3474 2.20792 15.0321C2.13973 14.7656 2.13762 14.6404 2.13762 10.8408V6.92415H9.74164H17.3457V10.8408ZM4.61917 9.06521C4.38063 9.17352 4.17983 9.46504 4.17983 9.70315C4.17983 9.94127 4.38063 10.2328 4.61917 10.3411C4.74256 10.3971 4.86334 10.4053 5.57992 10.4059C6.48592 10.4068 6.56312 10.3926 6.77716 10.1856C6.84926 10.1158 6.9133 10.0037 6.94685 9.88836C6.99522 9.72208 6.99522 9.68423 6.94685 9.51794C6.9133 9.40263 6.84926 9.29049 6.77716 9.22073C6.56312 9.01375 6.48592 8.99954 5.57992 9.00038C4.86334 9.00105 4.74256 9.00921 4.61917 9.06521ZM8.72714 9.09096C8.32096 9.2932 8.21992 9.80791 8.51951 10.1489C8.72999 10.3884 8.8098 10.4052 9.74164 10.4052C10.6585 10.4052 10.7439 10.3883 10.952 10.1669C11.2637 9.83528 11.1381 9.26446 10.7097 9.0663C10.5854 9.00879 10.4716 9.00105 9.73974 9.00038C8.91689 8.99961 8.90918 9.00031 8.72714 9.09096ZM12.9452 9.05568C12.3594 9.30924 12.3641 10.1068 12.9529 10.3521C13.0586 10.3962 13.2413 10.4066 13.9034 10.4059C14.6199 10.4053 14.7407 10.3971 14.8641 10.3411C15.1027 10.2328 15.3035 9.94127 15.3035 9.70315C15.3035 9.46504 15.1027 9.17352 14.8641 9.06521C14.7403 9.009 14.6216 9.00122 13.8957 9.00175C13.2351 9.00224 13.0436 9.01311 12.9452 9.05568ZM4.57309 13.2419C4.16691 13.4441 4.06587 13.9588 4.36546 14.2998C4.57545 14.5388 4.65673 14.556 5.57992 14.5568C6.24196 14.5575 6.4247 14.5471 6.53042 14.5031C7.00863 14.3038 7.1292 13.7039 6.76125 13.3547C6.56267 13.1662 6.47198 13.1505 5.57802 13.1505C4.76418 13.1505 4.75481 13.1514 4.57309 13.2419ZM8.80874 13.1972C8.55781 13.2953 8.40066 13.4858 8.35123 13.7517C8.29945 14.0304 8.48902 14.363 8.77322 14.492C8.89692 14.5482 9.01658 14.5561 9.74164 14.5561C10.679 14.5561 10.7632 14.5379 10.9659 14.2922C11.2579 13.9382 11.1328 13.4129 10.7097 13.2172C10.5849 13.1595 10.4753 13.1523 9.74164 13.154C9.19623 13.1552 8.87837 13.1699 8.80874 13.1972ZM12.9452 13.2066C12.3594 13.4602 12.3641 14.2577 12.9529 14.5031C13.0586 14.5471 13.2413 14.5575 13.9034 14.5568C14.8265 14.556 14.9078 14.5388 15.1178 14.2998C15.4187 13.9574 15.3137 13.4428 14.9011 13.2373C14.7303 13.1523 14.7099 13.1506 13.8976 13.1519C13.2366 13.153 13.0434 13.1641 12.9452 13.2066Z" fill="#3F3F3F"/>
</svg>
