<svg width="31" height="31" viewBox="0 0 31 31" fill="none" xmlns="http://www.w3.org/2000/svg">
<path d="M4.95075 5.16671H10.7503L12.6196 9.84L9.61661 11.842C9.25727 12.0815 9.04143 12.4848 9.04143 12.9167C9.04471 13.0376 9.04143 12.918 9.04143 12.918L9.04144 12.9194L9.04144 12.9222L9.04148 12.9288L9.04167 12.9447C9.04186 12.9566 9.04219 12.9711 9.04273 12.988C9.04383 13.0219 9.0458 13.0656 9.04934 13.1187C9.05641 13.2247 9.06973 13.3681 9.09478 13.5434C9.14484 13.8938 9.242 14.3738 9.43063 14.9398C9.8094 16.076 10.5536 17.5473 12.0031 18.9967C13.4525 20.4462 14.9238 21.1904 16.0601 21.5692C16.626 21.7578 17.106 21.855 17.4564 21.905C17.6317 21.9301 17.7751 21.9434 17.8811 21.9505C17.9342 21.954 17.978 21.956 18.0118 21.9571C18.0287 21.9576 18.0432 21.9579 18.0551 21.9581L18.071 21.9583L18.0776 21.9584L18.0805 21.9584L18.0818 21.9584C18.0818 21.9584 18.226 21.9505 18.0831 21.9584C18.5723 21.9584 19.0196 21.682 19.2384 21.2444L20.1034 19.5143L25.8331 20.4692V26.0491C23.1063 26.4434 15.7418 26.8321 9.95478 21.045C4.16773 15.258 4.5564 7.89354 4.95075 5.16671ZM11.7199 13.5446L14.0526 11.9895C15.069 11.3118 15.4718 10.0148 15.0181 8.88057L13.1488 4.20728C12.7565 3.2265 11.8066 2.58337 10.7503 2.58337H4.88327C3.70978 2.58337 2.60517 3.39862 2.41252 4.67187C1.97425 7.56856 1.3777 16.1213 8.12809 22.8717C14.8785 29.6221 23.4312 29.0256 26.3279 28.5873C27.6012 28.3946 28.4164 27.29 28.4164 26.1165V20.4692C28.4164 19.2064 27.5035 18.1287 26.2578 17.9211L20.5281 16.9661C19.4095 16.7797 18.3 17.3446 17.7928 18.359L17.3453 19.2541C17.2046 19.2196 17.0476 19.1753 16.877 19.1184C16.0758 18.8513 14.9637 18.3039 13.8298 17.17C12.6959 16.0362 12.1485 14.924 11.8814 14.1228C11.8092 13.9063 11.7573 13.7117 11.7199 13.5446Z" fill="#3F3F3F"/>
</svg>
