<svg width="23" height="22" viewBox="0 0 23 22" fill="none" xmlns="http://www.w3.org/2000/svg">
<path d="M4.26347 3.66683H8.38238L9.71 6.98336L7.57724 8.40412C7.32203 8.57413 7.16874 8.86034 7.16874 9.16683C7.17106 9.25266 7.16874 9.16775 7.16874 9.16775L7.16874 9.16871L7.16874 9.17076L7.16877 9.17538L7.16891 9.18669C7.16904 9.19514 7.16927 9.2054 7.16966 9.21742C7.17044 9.24145 7.17184 9.27252 7.17435 9.31016C7.17937 9.38542 7.18883 9.48715 7.20662 9.61157C7.24218 9.86026 7.31118 10.2009 7.44515 10.6025C7.71416 11.4089 8.24272 12.453 9.27215 13.4817C10.3016 14.5103 11.3465 15.0385 12.1535 15.3073C12.5554 15.4412 12.8963 15.5101 13.1452 15.5456C13.2697 15.5634 13.3715 15.5729 13.4468 15.5779C13.4845 15.5804 13.5156 15.5818 13.5396 15.5826C13.5517 15.583 13.5619 15.5832 13.5704 15.5833L13.5817 15.5835L13.5863 15.5835L13.5884 15.5835H13.5894C13.5894 15.5835 13.6918 15.5779 13.5903 15.5835C13.9377 15.5835 14.2554 15.3873 14.4108 15.0768L15.0252 13.849L19.0945 14.5267V18.4866C17.1578 18.7664 11.9275 19.0423 7.81741 14.9353C3.70735 10.8284 3.98339 5.602 4.26347 3.66683ZM9.07102 9.61241L10.7277 8.50878C11.4496 8.02788 11.7357 7.10742 11.4135 6.30247L10.0859 2.98595C9.80725 2.28991 9.13261 1.8335 8.38238 1.8335H4.21554C3.3821 1.8335 2.59759 2.41206 2.46077 3.31566C2.1495 5.37137 1.72582 11.4411 6.52006 16.2317C11.3143 21.0223 17.3886 20.5989 19.4459 20.2879C20.3502 20.1512 20.9292 19.3673 20.9292 18.5345V14.5267C20.9292 13.6305 20.2808 12.8656 19.3961 12.7183L15.3268 12.0406C14.5323 11.9083 13.7443 12.3092 13.3841 13.0291L13.0663 13.6643C12.9664 13.6398 12.8548 13.6084 12.7337 13.568C12.1646 13.3785 11.3748 12.99 10.5695 12.1853C9.7642 11.3806 9.37541 10.5914 9.18573 10.0228C9.13447 9.86914 9.09757 9.73099 9.07102 9.61241Z" fill="#3F3F3F"/>
</svg>
