<svg width="37" height="36" viewBox="0 0 37 36" fill="none" xmlns="http://www.w3.org/2000/svg">
<path d="M3.11694 10.2586C4.20679 7.98748 5.74663 6.06795 7.68726 4.47185C10.3169 2.2992 13.3333 0.991385 16.7154 0.590603C20.688 0.11951 24.4216 0.871853 27.874 2.93904C28.7318 3.45232 29.5333 4.03592 30.2998 4.66873C30.4896 4.82342 30.4685 4.91482 30.3068 5.06951C28.7388 6.63045 27.1708 8.19138 25.6169 9.76639C25.4341 9.9492 25.3357 9.93513 25.1388 9.78748C20.5826 6.27888 13.938 7.2281 10.5419 11.8687C9.94429 12.6844 9.45913 13.5633 9.12163 14.5195C9.09351 14.6039 9.03726 14.6812 8.99507 14.7656C8.08804 14.0765 7.17397 13.3875 6.27397 12.6914C5.21929 11.8828 4.1646 11.0742 3.11694 10.2586Z" fill="#E94335"/>
<path d="M8.99502 21.361C9.29736 22.0289 9.55049 22.725 9.93018 23.3508C11.5263 25.9664 13.8044 27.6469 16.8067 28.2446C19.5138 28.786 22.1153 28.4203 24.5411 27.0633C24.6255 27.0211 24.7099 26.9789 24.7872 26.9367C24.8294 26.9789 24.8646 27.0281 24.9067 27.0633C26.7208 28.4696 28.5419 29.8758 30.356 31.2821C29.4841 32.1469 28.4927 32.843 27.438 33.4477C24.3794 35.1914 21.0677 35.8946 17.5802 35.6274C13.2349 35.2899 9.48721 33.5742 6.39346 30.4805C5.03643 29.1235 3.91846 27.5907 3.10986 25.8399C3.86221 25.2633 4.61455 24.6938 5.36689 24.1172C6.57627 23.1961 7.78564 22.2821 8.99502 21.361Z" fill="#34A853"/>
<path d="M30.363 31.282C28.549 29.8758 26.7279 28.4695 24.9138 27.0633C24.8716 27.0281 24.8294 26.9789 24.7943 26.9367C25.42 26.4516 26.0599 25.9805 26.5732 25.3617C27.431 24.3352 28.0005 23.175 28.2958 21.8742C28.331 21.7125 28.3029 21.6563 28.1411 21.6633C28.0568 21.6703 27.9794 21.6633 27.895 21.6633C25.0263 21.6633 22.1505 21.6563 19.2818 21.6703C18.9654 21.6703 18.895 21.5859 18.9021 21.2836C18.9161 19.2445 18.9161 17.2055 18.9021 15.1664C18.9021 14.9062 18.9724 14.8359 19.2325 14.8359C24.4919 14.843 29.7513 14.843 35.0177 14.8359C35.2427 14.8359 35.3341 14.8922 35.3904 15.1312C35.8193 17.0648 35.7911 19.0055 35.531 20.9602C35.32 22.5211 34.9404 24.0328 34.3568 25.4953C33.4919 27.6539 32.2193 29.5383 30.5458 31.1555C30.4825 31.2047 30.4193 31.2398 30.363 31.282Z" fill="#4285F3"/>
<path d="M8.995 21.3609C7.78563 22.282 6.57625 23.1961 5.36688 24.1172C4.61453 24.6867 3.86219 25.2633 3.10985 25.8398C2.52625 24.757 2.14656 23.6109 1.83719 22.4297C1.24656 20.1445 1.15516 17.8242 1.4786 15.4969C1.73172 13.6687 2.25906 11.9109 3.10985 10.2656C4.16453 11.0742 5.21219 11.8898 6.26688 12.6984C7.17391 13.3945 8.08094 14.0836 8.98797 14.7727C8.83328 15.525 8.61531 16.2633 8.545 17.0367C8.41844 18.443 8.55203 19.8141 8.95281 21.1641C8.98094 21.2203 8.98797 21.2906 8.995 21.3609Z" fill="#FABB06"/>
</svg>
