<svg width="31" height="31" viewBox="0 0 31 31" fill="none" xmlns="http://www.w3.org/2000/svg">
<g clip-path="url(#clip0_108_750)">
<path d="M15.5 14.2083H26.5218C26.5786 14.7056 26.6083 15.2158 26.6083 15.7377C26.6083 19.2691 25.3425 22.2425 23.1493 24.2627C21.2311 26.0335 18.6052 27.072 15.4742 27.072C13.9509 27.0727 12.4424 26.7732 11.0349 26.1906C9.62736 25.608 8.34846 24.7538 7.27126 23.6767C6.19406 22.5996 5.33967 21.3208 4.75692 19.9134C4.17418 18.506 3.87449 16.9975 3.875 15.4742C3.87432 13.9508 4.17388 12.4421 4.75655 11.0346C5.33922 9.62697 6.19359 8.34802 7.2708 7.2708C8.34802 6.19359 9.62697 5.33922 11.0346 4.75655C12.4421 4.17388 13.9508 3.87432 15.4742 3.875C18.6 3.875 21.226 5.02458 23.2345 6.89621L21.3461 8.78334C19.8503 7.33796 17.8289 6.45833 15.5 6.45833C14.3126 6.45833 13.1369 6.6922 12.0399 7.14659C10.9429 7.60098 9.94617 8.26698 9.10658 9.10658C8.26698 9.94617 7.60098 10.9429 7.14659 12.0399C6.6922 13.1369 6.45833 14.3126 6.45833 15.5C6.45833 16.6874 6.6922 17.8631 7.14659 18.9601C7.60098 20.0571 8.26698 21.0538 9.10658 21.8934C9.94617 22.733 10.9429 23.399 12.0399 23.8534C13.1369 24.3078 14.3126 24.5417 15.5 24.5417C20.0544 24.5417 23.436 21.173 23.9953 16.7917H15.5V14.2083Z" fill="#3F3F3F"/>
</g>
<defs>
<clipPath id="clip0_108_750">
<rect width="31" height="31" fill="white"/>
</clipPath>
</defs>
</svg>
