<svg width="23" height="22" viewBox="0 0 23 22" fill="none" xmlns="http://www.w3.org/2000/svg">
<path d="M2.58179 5.49984C2.58179 4.48732 3.40322 3.6665 4.41651 3.6665H19.0943C20.1076 3.6665 20.9291 4.48731 20.9291 5.49984V15.5832C20.9291 16.5957 20.1076 17.4165 19.0943 17.4165H14.8875L12.4041 19.898C12.0458 20.256 11.465 20.256 11.1067 19.898L8.62335 17.4165H4.41651C3.40322 17.4165 2.58179 16.5957 2.58179 15.5832V5.49984ZM19.0943 5.49984H4.41651V15.5832H9.00333C9.24663 15.5832 9.47997 15.6797 9.65201 15.8517L11.7554 17.9535L13.8588 15.8517C14.0309 15.6797 14.2642 15.5832 14.5075 15.5832H19.0943V5.49984Z" fill="#3F3F3F"/>
<path d="M13.1315 10.5415C13.1315 11.3009 12.5154 11.9165 11.7554 11.9165C10.9955 11.9165 10.3794 11.3009 10.3794 10.5415C10.3794 9.78211 10.9955 9.1665 11.7554 9.1665C12.5154 9.1665 13.1315 9.78211 13.1315 10.5415Z" fill="#3F3F3F"/>
<path d="M16.8009 10.5415C16.8009 11.3009 16.1848 11.9165 15.4249 11.9165C14.6649 11.9165 14.0488 11.3009 14.0488 10.5415C14.0488 9.78211 14.6649 9.1665 15.4249 9.1665C16.1848 9.1665 16.8009 9.78211 16.8009 10.5415Z" fill="#3F3F3F"/>
<path d="M9.46201 10.5415C9.46201 11.3009 8.84594 11.9165 8.08597 11.9165C7.326 11.9165 6.70992 11.3009 6.70992 10.5415C6.70992 9.78211 7.326 9.1665 8.08597 9.1665C8.84594 9.1665 9.46201 9.78211 9.46201 10.5415Z" fill="#3F3F3F"/>
</svg>
