<svg width="31" height="31" viewBox="0 0 31 31" fill="none" xmlns="http://www.w3.org/2000/svg">
<path d="M2.58325 7.74996C2.58325 6.32322 3.73985 5.16663 5.16659 5.16663H25.8333C27.26 5.16663 28.4166 6.32322 28.4166 7.74996V21.9583C28.4166 23.385 27.26 24.5416 25.8333 24.5416H19.9099L16.4133 28.0383C15.9088 28.5427 15.091 28.5427 14.5866 28.0383L11.0899 24.5416H5.16659C3.73985 24.5416 2.58325 23.385 2.58325 21.9583V7.74996ZM25.8333 7.74996H5.16659V21.9583H11.6249C11.9675 21.9583 12.296 22.0944 12.5383 22.3366L15.4999 25.2983L18.4616 22.3366C18.7038 22.0944 19.0323 21.9583 19.3749 21.9583H25.8333V7.74996Z" fill="#3F3F3F"/>
<path d="M17.4374 14.8541C17.4374 15.9242 16.57 16.7916 15.4999 16.7916C14.4299 16.7916 13.5624 15.9242 13.5624 14.8541C13.5624 13.7841 14.4299 12.9166 15.4999 12.9166C16.57 12.9166 17.4374 13.7841 17.4374 14.8541Z" fill="#3F3F3F"/>
<path d="M22.6041 14.8541C22.6041 15.9242 21.7366 16.7916 20.6666 16.7916C19.5965 16.7916 18.7291 15.9242 18.7291 14.8541C18.7291 13.7841 19.5965 12.9166 20.6666 12.9166C21.7366 12.9166 22.6041 13.7841 22.6041 14.8541Z" fill="#3F3F3F"/>
<path d="M12.2708 14.8541C12.2708 15.9242 11.4033 16.7916 10.3333 16.7916C9.2632 16.7916 8.39575 15.9242 8.39575 14.8541C8.39575 13.7841 9.2632 12.9166 10.3333 12.9166C11.4033 12.9166 12.2708 13.7841 12.2708 14.8541Z" fill="#3F3F3F"/>
</svg>
