<svg width="23" height="22" viewBox="0 0 23 22" fill="none" xmlns="http://www.w3.org/2000/svg">
<g clip-path="url(#clip0_107_1392)">
<path d="M11.7554 20.1668C6.68882 20.1668 2.58179 16.0629 2.58179 11.0002C2.58179 5.93741 6.68882 1.8335 11.7554 1.8335C16.822 1.8335 20.9291 5.93741 20.9291 11.0002C20.9291 16.0629 16.822 20.1668 11.7554 20.1668ZM11.7554 18.3335C13.7018 18.3335 15.5685 17.5609 16.9448 16.1856C18.3211 14.8103 19.0943 12.9451 19.0943 11.0002C19.0943 9.05524 18.3211 7.18998 16.9448 5.81471C15.5685 4.43945 13.7018 3.66683 11.7554 3.66683C9.80902 3.66683 7.94234 4.43945 6.56603 5.81471C5.18972 7.18998 4.41651 9.05524 4.41651 11.0002C4.41651 12.9451 5.18972 14.8103 6.56603 16.1856C7.94234 17.5609 9.80902 18.3335 11.7554 18.3335ZM12.6728 11.0002H16.3422V12.8335H10.8381V6.41683H12.6728V11.0002Z" fill="#3F3F3F"/>
</g>
<defs>
<clipPath id="clip0_107_1392">
<rect width="22.0167" height="22" fill="white" transform="translate(0.74707)"/>
</clipPath>
</defs>
</svg>
